<svg xmlns="http://www.w3.org/2000/svg" xmlns:xlink="http://www.w3.org/1999/xlink" viewBox="0 0 2824.98 2694.19"><defs><style>.cls-1{fill:url(#linear-gradient);}.cls-2{fill:url(#linear-gradient-2);}.cls-3{isolation:isolate;}.cls-4,.cls-61{fill:#d8dee8;}.cls-5{fill:url(#linear-gradient-3);}.cls-6{fill:url(#linear-gradient-4);}.cls-7{clip-path:url(#clip-path);}.cls-8{opacity:0.7;}.cls-18,.cls-21,.cls-8{mix-blend-mode:soft-light;}.cls-21,.cls-9{fill:#fff;}.cls-10{clip-path:url(#clip-path-2);}.cls-11{opacity:0.54;fill:url(#linear-gradient-7);}.cls-11,.cls-15,.cls-19,.cls-33,.cls-69{mix-blend-mode:multiply;}.cls-12{fill:url(#linear-gradient-8);}.cls-13{fill:url(#linear-gradient-9);}.cls-14{opacity:0.53;}.cls-15,.cls-19,.cls-33,.cls-69{opacity:0.3;}.cls-15{fill:url(#linear-gradient-10);}.cls-16{fill:url(#linear-gradient-11);}.cls-17,.cls-22{opacity:0.19;}.cls-17{fill:url(#linear-gradient-12);}.cls-19{fill:url(#linear-gradient-13);}.cls-20{fill:url(#linear-gradient-14);}.cls-23{fill:url(#linear-gradient-15);}.cls-24{fill:url(#linear-gradient-16);}.cls-25{fill:url(#linear-gradient-17);}.cls-26{fill:url(#linear-gradient-18);}.cls-27{fill:url(#linear-gradient-19);}.cls-28{fill:url(#linear-gradient-20);}.cls-29{fill:url(#linear-gradient-21);}.cls-30{fill:url(#linear-gradient-22);}.cls-31{fill:url(#linear-gradient-23);}.cls-32{fill:url(#linear-gradient-24);}.cls-33{fill:url(#linear-gradient-25);}.cls-34{fill:url(#linear-gradient-26);}.cls-35{fill:url(#linear-gradient-27);}.cls-36{fill:url(#linear-gradient-28);}.cls-37{fill:url(#linear-gradient-29);}.cls-38{fill:url(#linear-gradient-30);}.cls-39{fill:url(#linear-gradient-31);}.cls-40{fill:url(#linear-gradient-32);}.cls-41{fill:url(#linear-gradient-33);}.cls-42{fill:url(#linear-gradient-34);}.cls-43{fill:url(#linear-gradient-35);}.cls-44{fill:url(#linear-gradient-36);}.cls-45{fill:url(#linear-gradient-37);}.cls-46{fill:url(#linear-gradient-38);}.cls-47{fill:url(#linear-gradient-39);}.cls-48{fill:url(#linear-gradient-40);}.cls-49{fill:url(#linear-gradient-41);}.cls-50{fill:url(#linear-gradient-42);}.cls-51{fill:url(#linear-gradient-43);}.cls-52{fill:url(#linear-gradient-44);}.cls-53{fill:url(#linear-gradient-45);}.cls-54{fill:url(#linear-gradient-46);}.cls-55{fill:url(#linear-gradient-47);}.cls-56{fill:url(#linear-gradient-48);}.cls-57{fill:url(#linear-gradient-49);}.cls-58{fill:url(#linear-gradient-50);}.cls-59{fill:url(#linear-gradient-51);}.cls-60{fill:url(#linear-gradient-52);}.cls-61{opacity:0.5;}.cls-62{fill:url(#linear-gradient-53);}.cls-63{fill:url(#linear-gradient-54);}.cls-64{fill:url(#linear-gradient-55);}.cls-65{fill:url(#linear-gradient-56);}.cls-66{fill:url(#linear-gradient-57);}.cls-67{fill:url(#linear-gradient-58);}.cls-68{fill:url(#linear-gradient-59);}.cls-69{fill:url(#linear-gradient-60);}.cls-70{fill:url(#linear-gradient-61);}.cls-71{fill:url(#linear-gradient-62);}.cls-72{fill:url(#linear-gradient-63);}.cls-73{fill:url(#linear-gradient-64);}.cls-74{fill:url(#linear-gradient-65);}</style><linearGradient id="linear-gradient" x1="1521.58" y1="244.35" x2="1861.2" y2="1438.88" gradientUnits="userSpaceOnUse"><stop offset="0" stop-color="#e38ddd"/><stop offset="1" stop-color="#9571f6"/></linearGradient><linearGradient id="linear-gradient-2" x1="2108.7" y1="928.25" x2="2497.18" y2="1799.4" xlink:href="#linear-gradient"/><linearGradient id="linear-gradient-3" x1="596.22" y1="3141.19" x2="-25.69" y2="2353.44" gradientTransform="matrix(0.96, 0.27, -0.27, 0.96, 855.15, -2299.71)" xlink:href="#linear-gradient"/><linearGradient id="linear-gradient-4" x1="891.7" y1="2341.38" x2="1466.97" y2="3126.55" gradientTransform="matrix(0.96, 0.27, -0.27, 0.96, 855.15, -2299.71)" gradientUnits="userSpaceOnUse"><stop offset="0" stop-color="#ff9085"/><stop offset="1" stop-color="#fb6fbb"/></linearGradient><clipPath id="clip-path" transform="translate(0 90.97)"><path class="cls-1" d="M1377.13,2230.52c-90.13-104.53-59.23-311.76,1.42-440.88,70.81-150.75,153.75-134.52,199.7-256.05,85.55-226.26-166.89-375.29-98.71-610.31,55.73-192.13,245.58-165.43,297.62-381,37.55-155.55-43.25-244.22,34-368.84,6.61-10.66,79.53-124.53,193-127.11C2118.65,43.72,2207.45,156,2244.78,238c69,151.45-27.56,221.71-11.65,431.26,21.67,285.29,213.48,323.92,186,537.29-22.68,176.19-158.7,190.49-180,386.34-19.74,181.87,90.37,235.63,65.36,356.71C2247,2228.1,1561,2443.72,1377.13,2230.52Z"/></clipPath><clipPath id="clip-path-2" transform="translate(0 90.97)"><path class="cls-2" d="M1941.64,2210.13c-76.21-88.39-50.08-263.61,1.2-372.78,59.87-127.47,130-113.75,168.85-216.5,72.34-191.32-141.11-317.33-83.46-516,47.12-162.45,207.65-139.88,251.65-322.15,31.75-131.53-36.57-206.5,28.79-311.88,5.59-9,67.24-105.29,163.15-107.47,96.8-2.2,171.89,92.75,203.45,162,58.34,128-23.3,187.47-9.84,364.65,18.32,241.22,180.5,273.88,157.28,454.29-19.18,149-134.19,161.07-152.17,326.67-16.7,153.78,76.41,199.24,55.26,301.62C2677.16,2208.08,2097.07,2390.4,1941.64,2210.13Z"/></clipPath><linearGradient id="linear-gradient-7" x1="1564.83" y1="1428.86" x2="731.45" y2="1675.87" gradientUnits="userSpaceOnUse"><stop offset="0" stop-color="#d8dee8"/><stop offset="1" stop-color="#a2a7ae"/></linearGradient><linearGradient id="linear-gradient-8" x1="2131.6" y1="126.22" x2="445.9" y2="2760.13" gradientUnits="userSpaceOnUse"><stop offset="0" stop-color="#fff"/><stop offset="1" stop-color="#ebeff2"/></linearGradient><linearGradient id="linear-gradient-9" x1="2318" y1="322.45" x2="-268.51" y2="3230.6" gradientUnits="userSpaceOnUse"><stop offset="0" stop-color="#444b8c"/><stop offset="1" stop-color="#26264f"/></linearGradient><linearGradient id="linear-gradient-10" x1="1290.42" y1="1537.38" x2="1502.12" y2="3042.02" xlink:href="#linear-gradient-9"/><linearGradient id="linear-gradient-11" x1="1445.43" y1="964.61" x2="1402.19" y2="2486.44" gradientUnits="userSpaceOnUse"><stop offset="0" stop-color="#ffc444"/><stop offset="1" stop-color="#f36f56"/></linearGradient><linearGradient id="linear-gradient-12" x1="1465.74" y1="1430.27" x2="1621.64" y2="2538.3" xlink:href="#linear-gradient-8"/><linearGradient id="linear-gradient-13" x1="553.56" y1="1667.15" x2="370.65" y2="2117.1" xlink:href="#linear-gradient-9"/><linearGradient id="linear-gradient-14" x1="681.09" y1="1517.19" x2="460.35" y2="2060.21" gradientTransform="matrix(1, 0, 0, 1, 0, 0)" xlink:href="#linear-gradient-4"/><linearGradient id="linear-gradient-15" x1="252.42" y1="2033.97" x2="305.62" y2="2033.97" xlink:href="#linear-gradient-8"/><linearGradient id="linear-gradient-16" x1="323.45" y1="2082.11" x2="367.99" y2="2082.11" xlink:href="#linear-gradient-8"/><linearGradient id="linear-gradient-17" x1="373.38" y1="2026.16" x2="429.83" y2="2026.16" xlink:href="#linear-gradient-8"/><linearGradient id="linear-gradient-18" x1="437.24" y1="2041.93" x2="491.14" y2="2041.93" xlink:href="#linear-gradient-8"/><linearGradient id="linear-gradient-19" x1="512.27" y1="2106.95" x2="551.93" y2="2106.95" xlink:href="#linear-gradient-8"/><linearGradient id="linear-gradient-20" x1="564.89" y1="2075.21" x2="612.2" y2="2075.21" xlink:href="#linear-gradient-8"/><linearGradient id="linear-gradient-21" x1="618.3" y1="2051.37" x2="671.97" y2="2051.37" xlink:href="#linear-gradient-8"/><linearGradient id="linear-gradient-22" x1="682.67" y1="2073.13" x2="731.23" y2="2073.13" xlink:href="#linear-gradient-8"/><linearGradient id="linear-gradient-23" x1="732.58" y1="2042.06" x2="790" y2="2042.06" xlink:href="#linear-gradient-8"/><linearGradient id="linear-gradient-24" x1="787.52" y1="2032.8" x2="848.28" y2="2032.8" xlink:href="#linear-gradient-8"/><linearGradient id="linear-gradient-25" x1="434.37" y1="972.29" x2="719.33" y2="1652.07" xlink:href="#linear-gradient-9"/><linearGradient id="linear-gradient-26" x1="439.93" y1="907.1" x2="724.89" y2="1586.88" gradientUnits="userSpaceOnUse"><stop offset="0" stop-color="#aa80f9"/><stop offset="1" stop-color="#6165d7"/></linearGradient><linearGradient id="linear-gradient-27" x1="418.8" y1="1131.93" x2="484.29" y2="1131.93" xlink:href="#linear-gradient-8"/><linearGradient id="linear-gradient-28" x1="499.7" y1="1134.53" x2="563.7" y2="1134.53" xlink:href="#linear-gradient-8"/><linearGradient id="linear-gradient-29" x1="578.76" y1="1137.07" x2="641.3" y2="1137.07" xlink:href="#linear-gradient-8"/><linearGradient id="linear-gradient-30" x1="656.02" y1="1139.56" x2="717.16" y2="1139.56" xlink:href="#linear-gradient-8"/><linearGradient id="linear-gradient-31" x1="731.56" y1="1141.99" x2="791.34" y2="1141.99" xlink:href="#linear-gradient-8"/><linearGradient id="linear-gradient-32" x1="251.16" y1="1195.82" x2="319.82" y2="1195.82" xlink:href="#linear-gradient-8"/><linearGradient id="linear-gradient-33" x1="335.97" y1="1197.73" x2="403.02" y2="1197.73" xlink:href="#linear-gradient-8"/><linearGradient id="linear-gradient-34" x1="418.8" y1="1199.6" x2="484.29" y2="1199.6" xlink:href="#linear-gradient-8"/><linearGradient id="linear-gradient-35" x1="499.7" y1="1201.42" x2="563.7" y2="1201.42" xlink:href="#linear-gradient-8"/><linearGradient id="linear-gradient-36" x1="578.76" y1="1203.2" x2="641.3" y2="1203.2" xlink:href="#linear-gradient-8"/><linearGradient id="linear-gradient-37" x1="656.02" y1="1204.95" x2="717.16" y2="1204.95" xlink:href="#linear-gradient-8"/><linearGradient id="linear-gradient-38" x1="731.56" y1="1206.65" x2="791.34" y2="1206.65" xlink:href="#linear-gradient-8"/><linearGradient id="linear-gradient-39" x1="251.16" y1="1265.11" x2="319.82" y2="1265.11" xlink:href="#linear-gradient-8"/><linearGradient id="linear-gradient-40" x1="335.97" y1="1266.2" x2="403.02" y2="1266.2" xlink:href="#linear-gradient-8"/><linearGradient id="linear-gradient-41" x1="418.8" y1="1267.27" x2="484.29" y2="1267.27" xlink:href="#linear-gradient-8"/><linearGradient id="linear-gradient-42" x1="499.7" y1="1268.31" x2="563.7" y2="1268.31" xlink:href="#linear-gradient-8"/><linearGradient id="linear-gradient-43" x1="578.76" y1="1269.33" x2="641.3" y2="1269.33" xlink:href="#linear-gradient-8"/><linearGradient id="linear-gradient-44" x1="656.02" y1="1270.33" x2="717.16" y2="1270.33" xlink:href="#linear-gradient-8"/><linearGradient id="linear-gradient-45" x1="731.56" y1="1271.3" x2="791.34" y2="1271.3" xlink:href="#linear-gradient-8"/><linearGradient id="linear-gradient-46" x1="251.16" y1="1334.4" x2="319.82" y2="1334.4" xlink:href="#linear-gradient-8"/><linearGradient id="linear-gradient-47" x1="335.97" y1="1334.67" x2="403.02" y2="1334.67" xlink:href="#linear-gradient-8"/><linearGradient id="linear-gradient-48" x1="418.8" y1="1334.94" x2="484.29" y2="1334.94" xlink:href="#linear-gradient-8"/><linearGradient id="linear-gradient-49" x1="499.7" y1="1335.21" x2="563.7" y2="1335.21" xlink:href="#linear-gradient-8"/><linearGradient id="linear-gradient-50" x1="578.76" y1="1335.46" x2="641.3" y2="1335.46" xlink:href="#linear-gradient-8"/><linearGradient id="linear-gradient-51" x1="2184.63" y1="1204.09" x2="2560.01" y2="1043.87" xlink:href="#linear-gradient"/><linearGradient id="linear-gradient-52" x1="1501.02" y1="1250.31" x2="1540.39" y2="1250.31" gradientUnits="userSpaceOnUse"><stop offset="0" stop-color="#f36f56"/><stop offset="1" stop-color="#ffc444"/></linearGradient><linearGradient id="linear-gradient-53" x1="1250.98" y1="1200.94" x2="1643.76" y2="1200.94" gradientUnits="userSpaceOnUse"><stop offset="0" stop-color="#ab316d"/><stop offset="1" stop-color="#792d3d"/></linearGradient><linearGradient id="linear-gradient-54" x1="1086.37" y1="1044.44" x2="943.18" y2="811.18" gradientTransform="translate(231.71 621.49) rotate(-9.35)" xlink:href="#linear-gradient-52"/><linearGradient id="linear-gradient-55" x1="13609.2" y1="2552.83" x2="13540.12" y2="2325.04" gradientTransform="matrix(-1, 0.01, 0.01, 1, 15532.06, -74.39)" xlink:href="#linear-gradient-9"/><linearGradient id="linear-gradient-56" x1="13549.65" y1="2508.47" x2="13549.65" y2="2142.52" gradientTransform="matrix(-1, 0.01, 0.01, 1, 15532.06, -74.39)" xlink:href="#linear-gradient-11"/><linearGradient id="linear-gradient-57" x1="13678.57" y1="2494.81" x2="13678.57" y2="2128.84" gradientTransform="matrix(-1, 0.01, 0.01, 1, 15532.06, 16.58)" xlink:href="#linear-gradient-11"/><linearGradient id="linear-gradient-58" x1="13704.02" y1="2508.64" x2="13634.94" y2="2280.85" gradientTransform="matrix(-1, 0.01, 0.01, 1, 15532.06, -74.39)" xlink:href="#linear-gradient-9"/><linearGradient id="linear-gradient-59" x1="13518.03" y1="1718.81" x2="13484.42" y2="2475" gradientTransform="matrix(-1, 0.01, 0.01, 1, 15532.06, -74.39)" xlink:href="#linear-gradient-52"/><linearGradient id="linear-gradient-60" x1="13518.03" y1="1718.81" x2="13484.42" y2="2475" gradientTransform="matrix(-1, 0.01, 0.01, 1, 15532.06, -74.39)" xlink:href="#linear-gradient-52"/><linearGradient id="linear-gradient-61" x1="14126.67" y1="2031.48" x2="13385.92" y2="1997.81" gradientTransform="matrix(-1, 0.01, 0.01, 1, 15532.06, -74.39)" xlink:href="#linear-gradient-52"/><linearGradient id="linear-gradient-62" x1="170.11" y1="134.99" x2="180.53" y2="520.48" gradientTransform="translate(1502.52 1041.26) rotate(-29.57)" xlink:href="#linear-gradient-52"/><linearGradient id="linear-gradient-63" x1="1265.81" y1="-460.36" x2="1195.77" y2="-347.06" gradientTransform="matrix(0.79, -0.61, 0.61, 0.79, 1115.91, 2366.11)" xlink:href="#linear-gradient-11"/><linearGradient id="linear-gradient-64" x1="1321.45" y1="-1876.61" x2="1256.2" y2="-1771.06" gradientTransform="translate(2445.08 3437.05) rotate(-51.2)" xlink:href="#linear-gradient-11"/><linearGradient id="linear-gradient-65" x1="1730.44" y1="183.96" x2="1281.2" y2="648.87" gradientTransform="translate(683.64 1347.14) rotate(-20.95)" xlink:href="#linear-gradient-53"/></defs><g class="cls-3"><g id="Camada_2" data-name="Camada 2"><g id="Illustration"><path class="cls-4" d="M582.39,774.69c13.49,12.27,35.19,10.38,48.48-4.22s13.13-36.4-.36-48.67c-.69-.64-1.43-1.22-2.17-1.78a205.65,205.65,0,0,0,14.38-26.52c.9.25,1.8.48,2.74.65,18.33,3.33,37-9.2,41.81-28s-6.22-36.71-24.55-40c-1-.17-1.92-.28-2.88-.37a189.13,189.13,0,0,0-.21-29.16c1-.26,1.91-.53,2.86-.87,18.26-6.51,29-26.33,23.94-44.26s-23.92-27.19-42.18-20.68c-.93.34-1.83.73-2.73,1.13a166.9,166.9,0,0,0-14.75-24c.73-.69,1.46-1.39,2.15-2.15,13.29-14.6,29.65-30,16-42.11-31.64-27.9-51.53-16.94-64.82-2.33-.69.75-1.32,1.54-1.94,2.33a167.61,167.61,0,0,0-25.27-12.42c.32-.93.62-1.87.87-2.83,4.76-18.78,13.09-27.37-4.77-32.66-39-11.53-56.83,1.83-61.6,20.61-.25,1-.43,2-.59,2.94a188.72,188.72,0,0,0-29.06,2.53c-.18-.95-.37-1.89-.63-2.83-5-17.93-23.92-27.19-42.18-20.68s-29,26.33-23.93,44.26c.26.92.58,1.8.9,2.68a206.28,206.28,0,0,0-25.05,16.8c-.62-.68-1.27-1.36-2-2-13.49-12.28-35.2-10.39-48.49,4.22s-13.13,36.4.36,48.67c.7.64,1.43,1.21,2.17,1.77a206.31,206.31,0,0,0-14.38,26.52c-.9-.24-1.8-.47-2.74-.65-18.33-3.32-37,9.21-41.81,28s6.23,36.71,24.56,40c1,.18,1.91.28,2.87.37a189.26,189.26,0,0,0,.21,29.17c-.95.25-1.91.52-2.86.86-18.25,6.52-29,26.33-23.93,44.26s33.75,33.53,52,27c.93-.33-8-7-7.11-7.45a167.7,167.7,0,0,0,14.75,24c-.73.69-1.45,1.39-2.14,2.15-13.29,14.61-13.13,36.4.36,48.67s35.19,10.38,48.49-4.22c.68-.76,1.31-1.55,1.93-2.34a166.72,166.72,0,0,0,25.27,12.43c-.32.93-.62,1.86-.87,2.82-4.76,18.79,6.23,36.72,24.56,40s37.05-9.2,41.81-28c.25-1,.43-2,.6-2.93a189.84,189.84,0,0,0,29-2.53c.18.94.37,1.89.64,2.82,5,17.94,23.91,27.19,42.17,20.68s29-26.33,23.93-44.26c-.26-.92-.57-1.8-.9-2.67a206.36,206.36,0,0,0,25-16.81C581.05,773.38,581.69,774.05,582.39,774.69ZM386.25,723.4c-49-44.57-49.56-123.68-1.31-176.71S512,486.79,561,531.36,610.55,655,562.3,708.07,435.23,768,386.25,723.4Z" transform="translate(0 90.97)"/><path class="cls-4" d="M645.46,694.15c18.33,3.33,37-9.21,41.81-28s-6.22-36.71-24.55-40c-1-.17-1.92-.28-2.88-.37a189.13,189.13,0,0,0-.21-29.16c1-.26,1.91-.53,2.86-.87,18.26-6.51,44.32-27.21,37.47-44.53-13-32.87-37.45-26.92-55.71-20.41-.93.34-1.83.73-2.73,1.13a166.9,166.9,0,0,0-14.75-24c.73-.69,1.46-1.39,2.15-2.15a36.91,36.91,0,0,0,9.73-27.53q-32.91,32.92-65.26,66.39C609.65,590.41,606.07,660,562.3,708.07c-37.09,40.76-92.23,54.21-138,38-3.57,4.83-7.11,9.7-10.81,14.43-10.05,12.85-20.83,25.18-31.62,37.49q6.15,3,12.51,5.5c-.32.93-.62,1.86-.87,2.82-4.76,18.79,2.22,37.78,35.11,45,18.19,4,26.5-14.14,31.26-32.93.25-1,.43-2,.6-2.93a189.84,189.84,0,0,0,29-2.53c.18.94.37,1.89.64,2.82,5,17.94,35.39,33.32,53.64,26.8s17.5-32.45,12.46-50.38c-.26-.92-.57-1.8-.9-2.67a206.36,206.36,0,0,0,25-16.81c.63.69,1.27,1.36,2,2,13.49,12.27,35.19,10.38,48.49-4.22s13.12-36.4-.36-48.67c-.7-.64-1.44-1.22-2.18-1.78a205.65,205.65,0,0,0,14.38-26.52C643.62,693.75,644.52,694,645.46,694.15Z" transform="translate(0 90.97)"/><path class="cls-5" d="M598.72,781.24c13.49,12.28,35.2,10.39,48.49-4.22s13.13-36.39-.36-48.67c-.7-.63-1.43-1.21-2.17-1.77a206.88,206.88,0,0,0,14.38-26.52c.89.24,1.8.48,2.74.65,18.33,3.32,37-9.21,41.81-28s-6.23-36.72-24.56-40c-.95-.18-1.91-.28-2.87-.37a187.88,187.88,0,0,0-.22-29.16c1-.26,1.92-.53,2.87-.87,18.25-6.51,29-26.33,23.93-44.26s-23.92-27.19-42.17-20.68c-.94.33-1.84.72-2.73,1.13a167.25,167.25,0,0,0-14.75-24c.73-.69,1.45-1.39,2.14-2.15,13.29-14.6,13.13-36.39-.36-48.67s-35.2-10.38-48.49,4.22c-.68.76-1.32,1.55-1.93,2.34a169.09,169.09,0,0,0-25.27-12.43c.32-.93.62-1.86.86-2.82,4.77-18.79-6.22-36.71-24.55-40s-37.05,9.21-41.81,28c-.25,1-.43,2-.6,2.94a187.35,187.35,0,0,0-29.05,2.53c-.18-.95-.38-1.89-.64-2.83-5-17.93-23.92-27.19-42.17-20.68s-29,26.33-23.93,44.26c.26.92.57,1.8.9,2.67a207.53,207.53,0,0,0-25,16.81c-.63-.68-1.27-1.36-2-2-13.49-12.27-35.2-10.38-48.49,4.23s-13.12,36.39.36,48.67c.7.63,1.44,1.21,2.18,1.77a205.65,205.65,0,0,0-14.38,26.52c-.9-.24-1.81-.48-2.74-.65-18.33-3.32-37.05,9.21-41.81,28s6.22,36.72,24.55,40c1,.18,1.92.28,2.87.37a190.39,190.39,0,0,0,.22,29.16c-1,.26-1.91.53-2.86.87-18.26,6.51-29,26.33-23.94,44.26s23.92,27.19,42.17,20.68c.94-.33,1.84-.72,2.74-1.13a166.35,166.35,0,0,0,14.75,24c-.73.69-1.46,1.39-2.15,2.15-13.29,14.6-13.13,36.39.36,48.67s35.2,10.38,48.49-4.22c.69-.76,1.32-1.55,1.94-2.34a169,169,0,0,0,25.26,12.43c-.31.92-.62,1.86-.86,2.82-4.76,18.79,6.23,36.71,24.56,40s37-9.21,41.81-28c.25-1,.43-2,.59-2.94a188.72,188.72,0,0,0,29.06-2.53c.18.95.37,1.89.63,2.83,5,17.93,23.92,27.19,42.18,20.68s29-26.33,23.93-44.26c-.26-.92-.58-1.8-.91-2.67a206.85,206.85,0,0,0,25.06-16.81C597.38,779.93,598,780.61,598.72,781.24ZM402.59,730c-49-44.56-49.56-123.67-1.31-176.71s127.07-59.89,176.05-15.33,49.56,123.68,1.31,176.71S451.56,774.52,402.59,730Z" transform="translate(0 90.97)"/><path class="cls-4" d="M1401.58,782.38c29.05,26.43,75.81,22.36,104.44-9.1s28.28-78.4-.78-104.83c-1.5-1.37-3.08-2.61-4.68-3.82a444.31,444.31,0,0,0,31-57.12c1.94.52,3.89,1,5.91,1.39,39.48,7.17,79.8-19.83,90.06-60.29s-13.41-79.08-52.89-86.24c-2.06-.38-4.13-.6-6.19-.8a407.5,407.5,0,0,0-.47-62.81c2.06-.55,4.12-1.14,6.17-1.87,39.32-14,62.4-56.71,51.55-95.34S1574.15,243,1534.84,257c-2,.72-4,1.56-5.89,2.43a360.62,360.62,0,0,0-31.77-51.67c1.58-1.48,3.14-3,4.62-4.62,28.63-31.46,63.88-64.73,34.41-90.71-68.16-60.1-111-36.49-139.63-5-1.48,1.63-2.84,3.32-4.16,5A361.74,361.74,0,0,0,1338,85.67c.68-2,1.33-4,1.86-6.08,10.26-40.47,28.19-59-10.28-70.35-83.88-24.84-122.41,3.94-132.67,44.4-.54,2.11-.93,4.22-1.28,6.32A406.65,406.65,0,0,0,1133,65.41c-.38-2-.8-4.07-1.37-6.09-10.85-38.63-51.52-58.57-90.84-44.54s-62.39,56.71-51.54,95.34c.55,2,1.24,3.87,1.94,5.75a444.06,444.06,0,0,0-54,36.21c-1.35-1.48-2.73-2.94-4.24-4.3-29-26.44-75.81-22.37-104.43,9.09s-28.28,78.4.77,104.83c1.5,1.37,3.09,2.61,4.68,3.82a445,445,0,0,0-31,57.13c-1.93-.53-3.89-1-5.9-1.4-39.48-7.17-79.8,19.83-90.07,60.29s13.42,79.08,52.9,86.24c2.06.38,4.12.61,6.19.8a406.25,406.25,0,0,0,.46,62.81c-2.06.55-4.12,1.14-6.17,1.87-39.32,14-62.4,56.71-51.55,95.34s72.71,72.2,112,58.17c2-.72-17.24-15.19-15.31-16.06a360.62,360.62,0,0,0,31.77,51.67c-1.57,1.48-3.13,3-4.62,4.62-28.62,31.46-28.28,78.4.78,104.84s75.81,22.36,104.44-9.1c1.48-1.63,2.84-3.32,4.17-5a361.28,361.28,0,0,0,54.43,26.77c-.68,2-1.34,4-1.86,6.08-10.27,40.47,13.41,79.08,52.89,86.24s79.8-19.83,90.06-60.29c.53-2.12.92-4.22,1.28-6.32a406.63,406.63,0,0,0,62.58-5.45c.38,2,.81,4.07,1.37,6.09,10.85,38.62,51.52,58.57,90.84,44.54s62.4-56.71,51.55-95.34c-.56-2-1.24-3.87-1.95-5.75a443.29,443.29,0,0,0,54-36.21C1398.69,779.55,1400.07,781,1401.58,782.38ZM979.11,671.9c-105.49-96-106.75-266.4-2.82-380.63s273.71-129,379.2-33,106.76,266.4,2.82,380.63S1084.6,767.89,979.11,671.9Z" transform="translate(0 90.97)"/><path class="cls-4" d="M1537.44,608.9c39.48,7.17,79.8-19.83,90.06-60.29s-13.41-79.08-52.89-86.24c-2.06-.38-4.13-.6-6.19-.8a407.5,407.5,0,0,0-.47-62.81c2.06-.55,4.12-1.14,6.17-1.87,39.32-14,95.46-58.61,80.7-95.92-28-70.81-80.67-58-120-44-2,.72-4,1.56-5.88,2.43a361.59,361.59,0,0,0-31.78-51.67c1.58-1.48,3.14-3,4.62-4.62a79.58,79.58,0,0,0,21-59.31q-70.89,70.92-140.57,143c78.1,98.59,70.39,248.42-23.89,352-79.89,87.8-198.65,116.77-297.25,81.92-7.68,10.4-15.31,20.89-23.28,31.09-21.64,27.68-44.87,54.23-68.12,80.73q13.27,6.5,27,11.86c-.68,2-1.34,4-1.86,6.08-10.27,40.47,4.76,81.38,75.61,96.88,39.19,8.58,57.07-30.47,67.34-70.93.53-2.12.93-4.22,1.28-6.32a406.63,406.63,0,0,0,62.58-5.45c.38,2,.81,4.07,1.37,6.09,10.85,38.63,76.24,71.76,115.55,57.73s37.69-69.9,26.84-108.53c-.56-2-1.24-3.87-1.95-5.75a443.29,443.29,0,0,0,54-36.21c1.35,1.48,2.73,2.94,4.24,4.3,29.05,26.44,75.81,22.37,104.44-9.09s28.28-78.4-.78-104.83c-1.5-1.37-3.08-2.61-4.68-3.82a444.31,444.31,0,0,0,31-57.12C1533.47,608,1535.42,608.53,1537.44,608.9Z" transform="translate(0 90.97)"/><path class="cls-6" d="M1436.77,796.5c29,26.44,75.81,22.36,104.44-9.1s28.28-78.39-.78-104.83c-1.5-1.37-3.08-2.61-4.68-3.81a445,445,0,0,0,31-57.13c1.93.53,3.89,1,5.91,1.39,39.47,7.17,79.79-19.82,90.06-60.29s-13.42-79.08-52.89-86.24c-2.07-.37-4.13-.6-6.2-.79a406.38,406.38,0,0,0-.46-62.82c2.06-.55,4.12-1.14,6.17-1.87,39.32-14,62.4-56.71,51.55-95.33s-51.52-58.57-90.84-44.54c-2,.71-4,1.56-5.88,2.42a361.17,361.17,0,0,0-31.77-51.67c1.57-1.48,3.13-3,4.62-4.62,28.62-31.46,28.28-78.4-.78-104.83s-75.81-22.37-104.44,9.09c-1.48,1.63-2.84,3.33-4.17,5a361.58,361.58,0,0,0-54.42-26.76c.68-2,1.33-4,1.86-6.09,10.26-40.46-13.42-79.07-52.9-86.24s-79.79,19.83-90.06,60.29c-.53,2.12-.92,4.22-1.28,6.32a409.14,409.14,0,0,0-62.58,5.45c-.38-2-.8-4.07-1.37-6.09C1156,34.82,1115.33,14.88,1076,28.9s-62.39,56.71-51.55,95.34c.56,2,1.24,3.87,2,5.75a445.23,445.23,0,0,0-54,36.21c-1.35-1.48-2.73-2.93-4.24-4.3-29.05-26.44-75.81-22.37-104.44,9.09s-28.28,78.4.78,104.84c1.5,1.37,3.08,2.6,4.68,3.81a445,445,0,0,0-31,57.13c-1.94-.53-3.89-1-5.91-1.4-39.47-7.16-79.8,19.83-90.06,60.3s13.42,79.07,52.89,86.24c2.06.37,4.13.6,6.19.79a407.63,407.63,0,0,0,.47,62.82c-2.06.55-4.12,1.13-6.17,1.87-39.32,14-62.4,56.71-51.55,95.33s51.52,58.57,90.83,44.54c2-.72,4-1.56,5.89-2.42a361.07,361.07,0,0,0,31.77,51.66c-1.58,1.49-3.14,3-4.62,4.63-28.63,31.46-28.28,78.39.78,104.83s75.81,22.37,104.44-9.1c1.48-1.62,2.84-3.32,4.16-5a362.21,362.21,0,0,0,54.43,26.77c-.68,2-1.33,4-1.86,6.09-10.26,40.46,13.42,79.07,52.9,86.24s79.79-19.83,90.06-60.3c.53-2.11.92-4.22,1.28-6.32a406.63,406.63,0,0,0,62.58-5.45c.38,2,.8,4.07,1.37,6.09,10.85,38.63,51.52,58.57,90.84,44.54s62.39-56.71,51.55-95.33c-.56-2-1.25-3.88-2-5.76a444,444,0,0,0,54-36.2C1433.88,793.67,1435.26,795.13,1436.77,796.5ZM1014.3,686c-105.49-96-106.76-266.4-2.82-380.62s273.71-129,379.2-33,106.75,266.4,2.82,380.63S1119.79,782,1014.3,686Z" transform="translate(0 90.97)"/><path class="cls-1" d="M1377.13,2230.52c-90.13-104.53-59.23-311.76,1.42-440.88,70.81-150.75,153.75-134.52,199.7-256.05,85.55-226.26-166.89-375.29-98.71-610.31,55.73-192.13,245.58-165.43,297.62-381,37.55-155.55-43.25-244.22,34-368.84,6.61-10.66,79.53-124.53,193-127.11C2118.65,43.72,2207.45,156,2244.78,238c69,151.45-27.56,221.71-11.65,431.26,21.67,285.29,213.48,323.92,186,537.29-22.68,176.19-158.7,190.49-180,386.34-19.74,181.87,90.37,235.63,65.36,356.71C2247,2228.1,1561,2443.72,1377.13,2230.52Z" transform="translate(0 90.97)"/><g class="cls-7"><g class="cls-8"><path class="cls-9" d="M1503.51,2397.61a2,2,0,0,1-.57-3.89c116.9-34.46,221.45-91.86,310.75-170.61,84.6-74.59,172.06-151.72,195.75-268.59,17.91-88.38-11.36-145.71-48.43-218.29-36.07-70.63-81-158.55-91.64-303.5-6.09-82.77-13.67-185.78,39.15-294.24,30.77-63.18,66.16-94.3,97.38-121.77,32.72-28.78,58.57-51.51,67-101.25,13.71-81.11-16.41-143.15-51.3-215-21.53-44.35-43.8-90.21-59.4-146.65-43.9-158.85.53-346.46,132-557.6a2,2,0,0,1,2.73-.64,2,2,0,0,1,.63,2.73C1966.69,208.49,1922.41,395,1966,552.78c15.5,56.08,37.69,101.78,59.15,146,35.19,72.45,65.57,135,51.64,217.38-8.65,51.13-36.28,75.43-68.27,103.57-31,27.22-66,58.07-96.44,120.53-52.35,107.49-44.81,209.91-38.75,292.2,10.61,144.17,55.3,231.68,91.21,302,37.42,73.27,67,131.14,48.78,220.88-24,118.18-111.92,195.75-197,270.77-89.74,79.14-194.8,136.82-312.25,171.45A2.23,2.23,0,0,1,1503.51,2397.61Z" transform="translate(0 90.97)"/></g><g class="cls-8"><path class="cls-9" d="M1889.05,1193.94a2,2,0,0,1-1.65-.87c-136-200-182-365.78-196.63-469.59-15.87-112.63.75-178.88.92-179.54a2,2,0,0,1,3.84,1c-.17.65-16.61,66.32-.8,178.26,14.6,103.34,60.44,268.35,196,467.64a2,2,0,0,1-.53,2.75A1.92,1.92,0,0,1,1889.05,1193.94Z" transform="translate(0 90.97)"/></g><g class="cls-8"><path class="cls-9" d="M1888.91,1551a2,2,0,0,1-.84-3.78c116.11-54.75,211.71-125.81,284.16-211.19a680,680,0,0,0,128.85-230.55c46.93-144.27,31.47-260.74,31.31-261.9a2,2,0,0,1,3.93-.54c.16,1.16,15.75,118.39-31.41,263.49a683.69,683.69,0,0,1-129.58,232c-72.82,85.86-168.9,157.29-285.57,212.31A2.14,2.14,0,0,1,1888.91,1551Z" transform="translate(0 90.97)"/></g><g class="cls-8"><path class="cls-9" d="M1909.36,2146a2,2,0,0,1-1-.27C1669,2005.58,1568.65,1834.16,1526.58,1715c-45.62-129.16-34.43-226.53-34.31-227.5a2,2,0,1,1,3.94.48c-.12,1-11.2,97.58,34.18,225.91,41.88,118.43,141.8,288.89,380,428.38a2,2,0,0,1-1,3.69Z" transform="translate(0 90.97)"/></g><g class="cls-8"><path class="cls-9" d="M1962,527a2,2,0,0,1-1.09-3.64c184.54-121.3,243.24-281.14,260-393.87,18.16-122.25-7.7-217-8-218a2,2,0,0,1,1.38-2.44,2,2,0,0,1,2.44,1.38c.26,1,26.33,96.42,8.09,219.47-16.85,113.58-75.93,274.62-261.76,396.76A2,2,0,0,1,1962,527Z" transform="translate(0 90.97)"/></g></g><path class="cls-2" d="M1941.64,2210.13c-76.21-88.39-50.08-263.61,1.2-372.78,59.87-127.47,130-113.75,168.85-216.5,72.34-191.32-141.11-317.33-83.46-516,47.12-162.45,207.65-139.88,251.65-322.15,31.75-131.53-36.57-206.5,28.79-311.88,5.59-9,67.24-105.29,163.15-107.47,96.8-2.2,171.89,92.75,203.45,162,58.34,128-23.3,187.47-9.84,364.65,18.32,241.22,180.5,273.88,157.28,454.29-19.18,149-134.19,161.07-152.17,326.67-16.7,153.78,76.41,199.24,55.26,301.62C2677.16,2208.08,2097.07,2390.4,1941.64,2210.13Z" transform="translate(0 90.97)"/><g class="cls-10"><g class="cls-8"><path class="cls-9" d="M2048.49,2351.71a2,2,0,0,1-.56-3.88c98.8-29.13,187.17-77.64,262.64-144.2,71.49-63,145.4-128.21,165.41-226.93,15.12-74.63-9.61-123.06-40.92-184.37-30.51-59.75-68.49-134.12-77.51-256.75-5.16-70-11.57-157.17,33.12-248.94,26-53.48,56-79.82,82.42-103.06,27.62-24.29,49.44-43.48,56.53-85.43,11.58-68.48-13.87-120.9-43.34-181.59C2468.06,879,2449.22,840.25,2436,792.5c-37.15-134.4.43-293.11,111.69-471.72a2,2,0,0,1,3.36,2.1C2440.44,500.51,2403,658.16,2439.85,791.45c13.1,47.39,31.85,86,50,123.37,29.77,61.31,55.48,114.26,43.69,184-7.33,43.33-30.73,63.92-57.83,87.75-26.14,23-55.77,49.06-81.46,101.81-44.23,90.82-37.86,177.37-32.74,246.92,9,121.83,46.74,195.8,77.09,255.23,31.67,62,56.68,111,41.28,187-20.27,100-94.69,165.65-166.67,229.11-75.92,66.94-164.79,115.74-264.14,145A2.24,2.24,0,0,1,2048.49,2351.71Z" transform="translate(0 90.97)"/></g><g class="cls-8"><path class="cls-9" d="M2374.48,1334a2,2,0,0,1-1.64-.87c-115.05-169.19-153.94-309.38-166.31-397.18-13.42-95.3.64-151.37.78-151.93a2,2,0,0,1,3.84,1c-.14.55-14,56-.66,150.66,12.34,87.33,51.09,226.79,165.63,395.23a2,2,0,0,1-1.64,3.1Z" transform="translate(0 90.97)"/></g><g class="cls-8"><path class="cls-9" d="M2374.37,1635.84a2,2,0,0,1-.84-3.77c222.27-104.82,312.53-261,349.1-373.48,39.62-121.9,26.56-220.18,26.42-221.16a2,2,0,0,1,3.93-.54c.14,1,13.32,100.17-26.57,222.92a578.63,578.63,0,0,1-109.62,196.25c-61.61,72.63-142.88,133.06-241.57,179.59A2,2,0,0,1,2374.37,1635.84Z" transform="translate(0 90.97)"/></g><g class="cls-8"><path class="cls-9" d="M2391.66,2139a2,2,0,0,1-1-.27c-202.43-118.55-287.35-263.56-322.95-364.33-38.59-109.28-29.11-191.68-29-192.5a2,2,0,0,1,2.2-1.73,2,2,0,0,1,1.73,2.21c-.1.81-9.46,82.46,28.9,190.91,35.39,100.08,119.84,244.13,321.13,362a2,2,0,0,1-1,3.7Z" transform="translate(0 90.97)"/></g><g class="cls-8"><path class="cls-9" d="M2436.19,770.07a2,2,0,0,1-1.1-3.64c155.94-102.49,205.54-237.55,219.7-332.8,15.35-103.3-6.49-183.41-6.72-184.21a2,2,0,0,1,3.82-1.07c.23.81,22.28,81.6,6.85,185.7-14.25,96.1-64.24,232.35-221.47,335.69A2,2,0,0,1,2436.19,770.07Z" transform="translate(0 90.97)"/></g></g><path class="cls-11" d="M95.3,2530.73C42.88,2534.14,0,2497.67,0,2449.42V763.36c0-48.25,42.88-85.84,95.3-83.81l2247.15,121.5c39.77,1.54,82.4,2.83,82.4,44.56v1458c0,41.73-32.21,77.77-72,80.35Z" transform="translate(0 90.97)"/><path class="cls-12" d="M113.61,2530.73c-52.42,3.41-95.3-33.06-95.3-81.31V763.36c0-48.25,42.88-85.84,95.3-83.81l2257.57,87.59c39.77,1.55,72,36.74,72,78.47v1458c0,41.73-32.21,77.77-72,80.35Z" transform="translate(0 90.97)"/><path class="cls-13" d="M2371.18,817.45,113.61,737.15c-17.73-.63-32.13,12.06-32.13,28.36V2445.62c0,16.29,14.4,28.61,32.13,27.52l2257.57-139.47c13.5-.83,24.43-13,24.43-27.19V844C2395.61,829.81,2384.68,817.93,2371.18,817.45Z" transform="translate(0 90.97)"/><g class="cls-14"><path class="cls-9" d="M909.66,2305.56a14.19,14.19,0,0,1-14.19-14.19V898a14.19,14.19,0,0,1,28.37,0V2291.37A14.18,14.18,0,0,1,909.66,2305.56Z" transform="translate(0 90.97)"/><path class="cls-9" d="M1708.51,2262.42a14.18,14.18,0,0,1-14.18-14.18v-1328a14.19,14.19,0,0,1,28.37,0v1328A14.18,14.18,0,0,1,1708.51,2262.42Z" transform="translate(0 90.97)"/></g><path class="cls-15" d="M995.53,1011.31v658.58a25.67,25.67,0,0,0,28.71,25.49L1585,1628.71a31,31,0,0,0,26.4-38.6c-15.63-60.34-45.54-187.31-45.68-275.75a6.32,6.32,0,0,0-3.3-5.56L1004.9,1005.74A6.34,6.34,0,0,0,995.53,1011.31Z" transform="translate(0 90.97)"/><path class="cls-16" d="M1006.55,999.51,1684,930.08a10,10,0,0,1,11,8.41c9,56.09,60.67,351,180.83,539.85a10.06,10.06,0,0,1-6.39,15.23l-606.11,129.9a10.08,10.08,0,0,1-8.62-2.16c-25.27-21.35-166.29-157.8-257-609.79A10.09,10.09,0,0,1,1006.55,999.51Z" transform="translate(0 90.97)"/><path class="cls-17" d="M1659.7,1303.38c-76.48-19.17-96.17-98.85-166.18-98.27-69.25.58-84.2,78.83-146,75.15-70.24-4.19-83.91-107.39-174.86-131.5-31.34-8.32-61.86-4.57-88,3.21,51.06,239.5,168.6,406,168.6,406l556.23-114.4c-26.44-41.7-49.53-92.23-69.2-144C1707,1309.66,1680.51,1308.59,1659.7,1303.38Z" transform="translate(0 90.97)"/><g class="cls-18"><path class="cls-9" d="M1068.65,1070.45a14.18,14.18,0,0,1-1.35-28.3l575.15-55.63a14.19,14.19,0,1,1,2.72,28.24L1070,1070.39Q1069.34,1070.45,1068.65,1070.45Z" transform="translate(0 90.97)"/></g><g class="cls-18"><path class="cls-9" d="M1285.5,1105.14a14.19,14.19,0,0,1-1.53-28.29l368.41-40.46a14.18,14.18,0,0,1,3.09,28.2l-368.4,40.46A13.9,13.9,0,0,1,1285.5,1105.14Z" transform="translate(0 90.97)"/></g><path class="cls-19" d="M148.76,1584.24V2138.1a34.05,34.05,0,0,0,34.05,34.05h581a34.05,34.05,0,0,0,34-34.05V1786.21Z" transform="translate(0 90.97)"/><path class="cls-20" d="M938.87,2125.5H222.79c-47.13-102.29-83.68-309.86-74-541.26l722.62,34.13C855.69,1834.13,883.38,2036.3,938.87,2125.5Z" transform="translate(0 90.97)"/><path class="cls-21" d="M833.25,1687.65a16.82,16.82,0,0,0-16-15.61l-619-27.71a16.83,16.83,0,0,0-17.58,16.81v3.59a16.83,16.83,0,0,0,16.17,16.82l619,24.12A16.82,16.82,0,0,0,833.25,1687.65Z" transform="translate(0 90.97)"/><path class="cls-21" d="M554.44,1726.24l-355.28-12a17.87,17.87,0,0,0-18.48,17.86v2.1A17.87,17.87,0,0,0,198.05,1752l355.28,10a17.87,17.87,0,0,0,1.11-35.73Z" transform="translate(0 90.97)"/><g class="cls-22"><polygon class="cls-23" points="305.62 2130.46 270.3 2130.38 252.41 1937.47 287.17 1938.01 305.62 2130.46"/><polygon class="cls-24" points="367.99 2130.59 332.98 2130.52 323.44 2033.63 358.18 2033.94 367.99 2130.59"/><polygon class="cls-25" points="429.83 2130.73 395.11 2130.66 373.38 1921.59 407.49 1922.16 429.83 2130.73"/><polygon class="cls-26" points="491.14 2130.87 456.72 2130.79 437.25 1952.99 471.16 1953.48 491.14 2130.87"/><polygon class="cls-27" points="551.93 2131 517.8 2130.93 512.27 2082.89 546.27 2083.08 551.93 2131"/><polygon class="cls-28" points="612.2 2131.14 578.36 2131.06 564.89 2019.28 598.42 2019.62 612.2 2131.14"/><polygon class="cls-29" points="671.97 2131.27 638.41 2131.19 618.3 1971.47 651.42 1971.91 671.97 2131.27"/><polygon class="cls-30" points="731.23 2131.4 697.96 2131.32 682.67 2014.87 715.63 2015.21 731.23 2131.4"/><polygon class="cls-31" points="790 2131.53 757 2131.45 732.58 1952.59 765.1 1953.08 790 2131.53"/><polygon class="cls-32" points="848.28 2131.66 815.56 2131.58 787.52 1933.94 819.73 1934.47 848.28 2131.66"/></g><polygon class="cls-21" points="852.75 2162.5 273.28 2162.5 271.33 2141.48 849.83 2142.32 852.75 2162.5"/><path class="cls-33" d="M199.39,937.9v322.48A543.07,543.07,0,0,0,218.45,1403l4.84,17.77a15.17,15.17,0,0,0,14.63,11.18H852.49a13,13,0,0,0,12.7-15.87c-7.37-32.86-23.29-109-23.29-153L806.6,983.92c0-13.62,24.48-42.67,10.87-43.08L215,922.75A15.15,15.15,0,0,0,199.39,937.9Z" transform="translate(0 90.97)"/><path class="cls-34" d="M199.39,875v322.48a543.07,543.07,0,0,0,19.06,142.61l4.84,17.77a15.17,15.17,0,0,0,14.63,11.18H852.49a13,13,0,0,0,12.7-15.87c-7.37-32.86-23.29-108.94-23.29-153v-297A25.19,25.19,0,0,0,817.47,878L215,859.89A15.15,15.15,0,0,0,199.39,875Z" transform="translate(0 90.97)"/><path class="cls-21" d="M785.24,980.73H785L257,967.46a9.15,9.15,0,1,1,.46-18.3l528,13.27a9.15,9.15,0,0,1-.23,18.3Z" transform="translate(0 90.97)"/><g class="cls-22"><polygon class="cls-35" points="484.29 1155.6 418.8 1153.69 418.8 1108.25 484.29 1110.59 484.29 1155.6"/><polygon class="cls-36" points="563.7 1157.92 499.7 1156.05 499.7 1111.14 563.7 1113.42 563.7 1157.92"/><polygon class="cls-37" points="641.3 1160.19 578.76 1158.36 578.76 1113.96 641.3 1116.19 641.3 1160.19"/><polygon class="cls-38" points="717.16 1162.4 656.02 1160.62 656.02 1116.72 717.16 1118.9 717.16 1162.4"/><polygon class="cls-39" points="791.34 1164.57 731.56 1162.82 731.56 1119.42 791.34 1121.55 791.34 1164.57"/><polygon class="cls-40" points="319.82 1219.76 251.16 1218.42 251.16 1171.89 319.82 1173.67 319.82 1219.76"/><polygon class="cls-41" points="403.02 1221.37 335.97 1220.07 335.97 1174.09 403.02 1175.83 403.02 1221.37"/><polygon class="cls-42" points="484.29 1222.96 418.8 1221.68 418.8 1176.24 484.29 1177.94 484.29 1222.96"/><polygon class="cls-43" points="563.7 1224.5 499.7 1223.26 499.7 1178.34 563.7 1180.01 563.7 1224.5"/><polygon class="cls-44" points="641.3 1226.01 578.76 1224.79 578.76 1180.4 641.3 1182.02 641.3 1226.01"/><polygon class="cls-45" points="717.16 1227.49 656.02 1226.3 656.02 1182.4 717.16 1183.99 717.16 1227.49"/><polygon class="cls-46" points="791.34 1228.93 731.56 1227.77 731.56 1184.36 791.34 1185.92 791.34 1228.93"/><polygon class="cls-47" points="319.82 1288.71 251.16 1288.04 251.16 1241.51 319.82 1242.63 319.82 1288.71"/><polygon class="cls-48" points="403.02 1289.52 335.97 1288.87 335.97 1242.89 403.02 1243.98 403.02 1289.52"/><polygon class="cls-49" points="484.29 1290.31 418.8 1289.67 418.8 1244.23 484.29 1245.3 484.29 1290.31"/><polygon class="cls-50" points="563.7 1291.08 499.7 1290.46 499.7 1245.55 563.7 1246.59 563.7 1291.08"/><polygon class="cls-51" points="641.3 1291.84 578.76 1291.23 578.76 1246.83 641.3 1247.85 641.3 1291.84"/><polygon class="cls-52" points="717.16 1292.58 656.02 1291.98 656.02 1248.08 717.16 1249.08 717.16 1292.58"/><polygon class="cls-53" points="791.34 1293.3 731.56 1292.72 731.56 1249.31 791.34 1250.28 791.34 1293.3"/><polygon class="cls-54" points="319.82 1357.66 251.16 1357.66 251.16 1311.13 319.82 1311.58 319.82 1357.66"/><polygon class="cls-55" points="403.02 1357.66 335.97 1357.66 335.97 1311.68 403.02 1312.12 403.02 1357.66"/><polygon class="cls-56" points="484.29 1357.66 418.8 1357.66 418.8 1312.22 484.29 1312.65 484.29 1357.66"/><polygon class="cls-57" points="563.7 1357.66 499.7 1357.66 499.7 1312.75 563.7 1313.17 563.7 1357.66"/><polygon class="cls-58" points="641.3 1357.66 578.76 1357.66 578.76 1313.26 641.3 1313.67 641.3 1357.66"/></g><path class="cls-59" d="M1800.88,1023.93c1.13,201.37,11.29,382,79.21,429.82l534-3.64c-35.81-128.5-80.64-263.53-71.35-409.16Z" transform="translate(0 90.97)"/><path class="cls-60" d="M1530.18,1308.4s-16.16-8.07-24.72-21.18-4.1-32.69,7.83-46.8,17.52-48.21,17.52-48.21,14.2,30.9,8,43.26-18.12,37.5-18.12,37.5l19.68,21.56Z" transform="translate(0 90.97)"/><path class="cls-9" d="M1530.81,1276.48l-17.52,25.74s44,129.73,185.14,174.46,195-70.32,195-70.32S1688.4,1394.11,1530.81,1276.48Z" transform="translate(0 90.97)"/><path class="cls-61" d="M1545,1307a119.21,119.21,0,0,0-31.74-4.77s44,129.73,185.14,174.46,195-70.32,195-70.32a426.47,426.47,0,0,0-122.19-20.83c-74.65-1.6-93.38,18.12-128.53-.5C1602.6,1363.81,1596.84,1322.27,1545,1307Z" transform="translate(0 90.97)"/><path class="cls-62" d="M1253.23,1142l99.93,264.09c10.31,27.24,47.54,30.47,62.38,5.41l223.37-377.17a34.74,34.74,0,0,0-11.13-46.94l-13.33-8.55a34.74,34.74,0,0,0-48.56,11.39l-167.1,279a11.43,11.43,0,0,1-20.42-1.62L1318,1116.79a34.73,34.73,0,0,0-50.72-16.5h0A34.73,34.73,0,0,0,1253.23,1142Z" transform="translate(0 90.97)"/><path class="cls-63" d="M1382.19,1347s-13.39,3.63-19.74-22.19c-5-20.24-10-25.61-13.06-20.35s1,16.46,1,16.46-22.22-7-36.69-22.3-12.25,1.82-9.81,11.54,25.52,33.3,34,35.91,27.49,22,27.49,22Z" transform="translate(0 90.97)"/><path class="cls-64" d="M2025.24,2554.67c7.07,14.42,5.09,20.62,3.33,23.35-5.16,8-17.59.44-50,4.28a54.25,54.25,0,0,1-20.13-.7c-7.76-1.83-16.9-6-16.51-8,.14-.75,1.52-1,2-1.17,9-1.92,65.34-19.2,65.34-19.2Z" transform="translate(0 90.97)"/><path class="cls-65" d="M2029.57,2523l-5,32.24s-13.84,9.79-17.48-2.09c-2.62-8.55-2.55-31.59-2.55-31.59Z" transform="translate(0 90.97)"/><polygon class="cls-66" points="1871.69 2616.16 1885.28 2653.28 1905.04 2650.13 1900.46 2615.76 1871.69 2616.16"/><path class="cls-67" d="M1891.43,2582.75c9.56-11.35,18.1-10.32,19.83-18.12,1.35-6.13-2.4-13.64-8.06-16.49-8-4-17.6,2.25-19.77,3.66-14.79,9.62-10.77,24.65-24.71,31.17-2.81,1.32-7.25,2.71-11.94,7.1-2,1.87-6.93,6.49-5.77,9.67,1.34,3.68,10.13,3.55,18.49,3.43,10-.14,15-.21,19.87-3.22C1886.05,2595.77,1884.05,2591.5,1891.43,2582.75Z" transform="translate(0 90.97)"/><path class="cls-68" d="M2135.27,1751.84a1063.42,1063.42,0,0,1-26.6,191.18c-13.14,56.14-20.3,65.73-24.86,104.65-9.91,84.68,17.17,97.41,20.14,193.43,3.27,106-26.69,189.59-38.45,221.46a606.24,606.24,0,0,1-28.86,65.89c-9.89,8.26-24.66,4.69-40.25,1.17-3.71-96.18-9-186.73-12.66-282.91q-23.25-217.36-46.49-434.71Z" transform="translate(0 90.97)"/><path class="cls-69" d="M1996.39,2529.62c-3.71-96.18-9-186.73-12.66-282.91q-23.25-217.36-46.49-434.71l198-60.16c-.24,5-.59,9.75-.89,14.63-93.69,77.89-113,140.77-113.07,184,0,52.36,28,78.92,20.81,154.69-5.16,54.18-21.68,63.39-22.72,112.35-1.34,63.05,25,99.09,37.35,135.8,12,35.49,15.45,85.46-10.68,155.88-3.39,7.25-6.58,13.74-9.43,19.31C2026.75,2536.71,2012,2533.14,1996.39,2529.62Z" transform="translate(0 90.97)"/><path class="cls-70" d="M2023.29,1807.88c-59.4,72.74-93.28,140.75-112.83,188.39-23.52,57.33-40.58,100.29-35.23,155.93,5.88,61.24,33.65,83.24,52.09,135.45,17.89,50.63,26.61,128.54-20.06,244.47l-35.23,12.2c-7.8-31.33-20.42-78.19-39.29-134-37.4-110.59-74.67-183.37-84.75-206-35.5-79.6-39.09-221.72,108.67-495.93Z" transform="translate(0 90.97)"/><path class="cls-9" d="M1351.27,1367.79l30.26-48.6c63.35,100.1,121.11,125.35,162.76,129.42,76.2,7.45,180.33-57,309.17-134.67,18-10.86,53.64-32.77,95-25.14,9.9,1.83,41.92,9.38,79.63,57.1,70.6,89.36,28,151,86.91,215.07,42.51,46.23,69.69,19.64,131.36,80.29,45.56,44.8,43.33,71.71,84,90.22,49.63,22.6,83.88-3.44,111.58,23.75,22.35,21.93,27.49,65.78,9.71,87.34-22,26.73-65,2-135.18,3.54-118.29,2.67-135.66,76.29-274.23,90.25-46.3,4.67-103.21,9.53-142.24-25.44-19.47-17.46-26.88-37.85-45.2-124.22-36.3-171.11-36.69-183-52.72-196.62-54.08-45.89-132.4,26.94-233.71,6C1509.05,1583.86,1428.05,1536.68,1351.27,1367.79Z" transform="translate(0 90.97)"/><path class="cls-61" d="M2104.1,1885c-28.6-24.79-20.39-62.38-58.93-90.41-49.11-35.72-93.77,2.55-128.28-24.6-59-46.44,35.64-186.64-32-271.77-32.31-40.65-90.79-55.11-133.16-52-94,7-117.29,101.32-203.79,111.79-20.5,2.48-46.12.43-77-13.31,35.56,31.51,69,45.46,97.39,51.33,101.31,20.93,179.63-51.9,233.71-6,16,13.6,16.42,25.51,52.72,196.62,18.32,86.37,25.73,106.76,45.2,124.21,41.4,37.1,102.76,30,142.24,25.45,11.7-1.35,67.79-8.54,122.07-33.29C2135.51,1903.56,2116.72,1896,2104.1,1885Z" transform="translate(0 90.97)"/><path class="cls-71" d="M1841.84,1225.38s13,32,31.63,52.75c16.88,18.77,69.71,15.66,81.16,17.14s-11.4,25.69-38.45,38.41-109.39,34.65-127.58,29.12,8.13-13.93,25.55-28.35,15.17-57.66,5.36-74.18S1841.84,1225.38,1841.84,1225.38Z" transform="translate(0 90.97)"/><path class="cls-72" d="M1798.22,1278.7c-10.5-18.07-5.6-38.58-4.5-43,4.62-18.55,6.31-21.36,9.79-25.26l4.92-5.13.62-.44c3.41-2.3,16.11-6,18.85-6.12,8.73-.37,26.27,31.09,36.08,79.45l4.83,10.48c17-8.88,22.8-9,24.58-7,3.85,4.48,2.25,39.27-12.66,51.35-18.7,15.15-49.11-31.62-49.29-36.32C1827.65,1295.86,1806,1292,1798.22,1278.7Z" transform="translate(0 90.97)"/><path class="cls-73" d="M1817,1254.39c2.34-5.92,9.91-2.88,11.61,3.55s-2.8,14.73-9.19,15S1813.9,1262.35,1817,1254.39Z" transform="translate(0 90.97)"/><path class="cls-74" d="M2609.74,1050.36c-77.48-57.57-211.67,7.47-232.19,17.41-58,28.1-75.57,57-133.51,63.86-52.2,6.22-55.2-15.13-104.49-11.61-100,7.12-130.36,98-197.36,81.26-16.75-4.18-36.72-15.33-83-26.44-11.58-2.79-29.84-6.77-46.44,2.3-3.76,2.06-16.33,8.83-18.17,21.71-1.49,10.44,4.85,21.73,12.25,27.7,4.42,3.56,6.15,3,8.16,6,5.64,8.48-6.34,23.26-2.4,26.69,2.81,2.45,9.63-4.48,13.74-1.85,4.51,2.88-1.24,12.76,2.86,25.56-3.27,9.7,1.1,24.23,11.19,40.41,15.2,24.37,25.88,34.45,45.47,50.37,54.27,44.08,40.25,92.16,79.51,106.2,28,10,40.5-12.51,96-21.83,49.71-8.35,89.09,1.41,124.61,10.22,95.82,23.75,95.87,61.82,162.53,75.46,78.75,16.11,180.42-16.19,220.59-81.27,28.44-46.09,1.19-68.35,34.82-150.92,26.8-65.78,51.25-69.2,58.05-116.1S2654.19,1083.38,2609.74,1050.36Z" transform="translate(0 90.97)"/></g></g></g></svg>