<svg xmlns="http://www.w3.org/2000/svg" viewBox="0 0 1447.51 374.23"><defs><style>.cls-1{fill:#5b21b6;}.cls-2{fill:#febd46;}.cls-3{fill:#fb71b7;}</style></defs><g id="Camada_2" data-name="Camada 2"><g id="OBJECTS"><path class="cls-1" d="M285.41,0c30.95.07,58.65,20.3,67.07,50.09,5.2,18.42,5.14,43-6.86,75.27-19.25,52.1-48.14,67.57-48.14,67.57S56.32,31.84,1,158.45c0,0-11.71-49.22,46.36-78.89C105,50.08,194.11-.22,285.41,0Z"/><path class="cls-2" d="M314.25,333.83c-15.54,26.77-46.91,40.64-76.91,33-18.55-4.7-39.82-17.05-61.76-43.58-35.49-42.71-34.45-75.47-34.45-75.47S401.22,119.52,319.25,8.27c0,0,48.48,14.47,45.14,79.6C361.07,152.57,360.09,254.87,314.25,333.83Z"/><path class="cls-3" d="M290.18,359s-36.8,34.76-91.54-.7c-54.35-35.22-142.47-87.23-187.91-166.4a70.94,70.94,0,0,1-9.37-34.3C29.48,94.9,103.8,104,171,128.55,171.91,208.76,186.58,370.59,290.18,359Z"/><path class="cls-1" d="M467.8,99.94H577.42V124.3H537.67V249.08H507.54V124.3H467.8Z"/><path class="cls-1" d="M627.42,250.58a49.49,49.49,0,0,1-27.46-7.8,53.2,53.2,0,0,1-18.91-21.58q-6.84-13.78-6.84-31.3,0-17.75,6.84-31.42A53.4,53.4,0,0,1,600,137a49.49,49.49,0,0,1,27.46-7.8q14.1,0,24.68,7.27A38.28,38.28,0,0,1,667,156.56V130.71h30.34V249.08h-14.1c-5,0-8.94-1.45-11.86-4.38A15.44,15.44,0,0,1,667,233.27v-10a39.59,39.59,0,0,1-15,20.08Q641.52,250.58,627.42,250.58ZM636,224.3a29.56,29.56,0,0,0,26.6-15.71q4.38-7.8,4.38-18.69,0-11.11-4.38-18.7a31,31,0,0,0-11.43-11.65,30.39,30.39,0,0,0-30.35,0,31,31,0,0,0-11.43,11.65Q605,178.79,605,189.9q0,10.89,4.38,18.69a29.54,29.54,0,0,0,11.54,11.75A30.67,30.67,0,0,0,636,224.3Z"/><path class="cls-1" d="M770.15,250.58a59.65,59.65,0,0,1-23.07-4.27A48.32,48.32,0,0,1,730,234.66a41.88,41.88,0,0,1-9.61-16.56l28.2-6.41a19.9,19.9,0,0,0,7.7,11.22,22.34,22.34,0,0,0,13.46,4.16q9,0,13.57-3.41a10.3,10.3,0,0,0,4.59-8.55,9.15,9.15,0,0,0-4.7-8.23,42.76,42.76,0,0,0-12.39-4.7q-7.69-1.81-16.35-4.06a84.3,84.3,0,0,1-16.24-6,33.42,33.42,0,0,1-12.39-10.26Q721,175.37,721,164.47a30.42,30.42,0,0,1,5.66-17.74,38.26,38.26,0,0,1,16-12.82q10.35-4.69,25.32-4.7a58.8,58.8,0,0,1,22,3.85A40.75,40.75,0,0,1,805.84,144a38.83,38.83,0,0,1,8.55,16.88L787,168.1q-1.93-7.48-6.74-11.33T767,152.93q-8.34,0-12.5,3a9.48,9.48,0,0,0-4.17,8.12q0,5.13,4.81,8.12a46,46,0,0,0,12.39,5q7.59,2,16.14,4.27a79.21,79.21,0,0,1,16,6.09A34.94,34.94,0,0,1,812,198.12q4.9,6.74,4.91,17.2a30.21,30.21,0,0,1-5.66,17.84q-5.67,8-16.24,12.72T770.15,250.58Z"/><path class="cls-1" d="M840.45,249.08V91h30.13v87.61a53.42,53.42,0,0,0,20.3-8.33,62.62,62.62,0,0,0,16.67-16.56,63.52,63.52,0,0,0,9.83-23h31.84A77,77,0,0,1,938.53,156a98,98,0,0,1-17.73,20.62,71,71,0,0,1-21.16,13,57,57,0,0,1,16.88,8,87.38,87.38,0,0,1,15.6,13.68,85.59,85.59,0,0,1,12.39,17.74,65.83,65.83,0,0,1,6.84,20H919.3a58.7,58.7,0,0,0-7-18A64.24,64.24,0,0,0,900.82,217a61.5,61.5,0,0,0-14.32-9.83,47,47,0,0,0-15.92-4.7v46.58Z"/><path class="cls-1" d="M967.38,99.94h92.09V124.3h-62v38h47.65v23.72H997.51v63H967.38Z"/><path class="cls-1" d="M1078.7,217.25V91h30.13V215.11c0,3.28.93,5.73,2.78,7.37a9.65,9.65,0,0,0,6.62,2.46,11.54,11.54,0,0,0,4.7-.86l5.56,22.65a36.3,36.3,0,0,1-16.88,3.85,38.24,38.24,0,0,1-15.6-3.31,28.89,28.89,0,0,1-12.39-10.58Q1078.7,229.43,1078.7,217.25Z"/><path class="cls-1" d="M1199.86,250.58q-17.31,0-30.88-7.37A54.77,54.77,0,0,1,1147.4,222q-8-13.89-8-32.27t8.11-31.94a56.59,56.59,0,0,1,21.91-21.05,68.34,68.34,0,0,1,62-.11,55.88,55.88,0,0,1,21.91,20.94q8.12,13.57,8.12,32.16,0,18.38-8.34,32.27a56.36,56.36,0,0,1-22.22,21.26A65.1,65.1,0,0,1,1199.86,250.58Zm-.22-26.07a30.73,30.73,0,0,0,15-3.85,29.92,29.92,0,0,0,11.54-11.53q4.48-7.69,4.49-19.45,0-11.53-4.38-19.23A28.71,28.71,0,0,0,1214.92,159a30.89,30.89,0,0,0-14.85-3.74,29.7,29.7,0,0,0-14.64,3.74,28.44,28.44,0,0,0-11,11.43q-4.28,7.7-4.27,19.23,0,11.76,4,19.45a27.83,27.83,0,0,0,10.8,11.53A28.9,28.9,0,0,0,1199.64,224.51Z"/><path class="cls-1" d="M1270.15,130.71h30.35l25,108.76h-9l27.35-108.76h31.84l26.92,108.76h-9l24.79-108.76h29.06l-34.4,118.37h-32.7l-26.07-100h9.41l-26.5,100h-32.69Z"/></g></g></svg>