<svg xmlns="http://www.w3.org/2000/svg" viewBox="0 0 979.71 617.58"><defs><style>.cls-1{fill:#5b21b6;}.cls-2{fill:#febd46;}.cls-3{fill:#fb71b7;}</style></defs><g id="Camada_2" data-name="Camada 2"><g id="OBJECTS"><path class="cls-1" d="M597.15,0c31,.07,58.65,20.3,67.07,50.09,5.2,18.42,5.14,43-6.86,75.27-19.24,52.1-48.14,67.57-48.14,67.57S368.07,31.84,312.71,158.45c0,0-11.71-49.22,46.37-78.89C416.76,50.08,505.85-.22,597.15,0Z" transform="translate(-6.84)"/><path class="cls-2" d="M626,333.83c-15.54,26.77-46.91,40.64-76.91,33-18.55-4.7-39.81-17.05-61.76-43.58-35.49-42.71-34.45-75.47-34.45-75.47S713,119.52,631,8.27c0,0,48.48,14.47,45.14,79.6C672.81,152.57,671.83,254.87,626,333.83Z" transform="translate(-6.84)"/><path class="cls-3" d="M601.92,359s-36.8,34.76-91.53-.7C456,323.07,367.91,271.06,322.47,191.89a71,71,0,0,1-9.37-34.3c28.12-62.69,102.45-53.62,169.59-29C483.65,208.76,498.32,370.59,601.92,359Z" transform="translate(-6.84)"/><path class="cls-1" d="M6.84,466.94H116.45V491.3H76.71V616.08H46.58V491.3H6.84Z" transform="translate(-6.84)"/><path class="cls-1" d="M166.46,617.58a49.49,49.49,0,0,1-27.46-7.8,53.2,53.2,0,0,1-18.91-21.58q-6.84-13.79-6.84-31.3,0-17.74,6.84-31.42A53.4,53.4,0,0,1,139,504a49.49,49.49,0,0,1,27.46-7.8q14.1,0,24.68,7.27A38.28,38.28,0,0,1,206,523.56V497.71h30.34V616.08h-14.1c-5,0-8.94-1.45-11.86-4.38A15.44,15.44,0,0,1,206,600.27v-10a39.59,39.59,0,0,1-15,20.08Q180.56,617.59,166.46,617.58ZM175,591.3a30.3,30.3,0,0,0,15.28-4,30,30,0,0,0,11.33-11.75q4.38-7.8,4.38-18.69,0-11.11-4.38-18.7a31,31,0,0,0-11.43-11.65,30.39,30.39,0,0,0-30.35,0A31,31,0,0,0,148.4,538.2Q144,545.79,144,556.9q0,10.89,4.38,18.69a29.54,29.54,0,0,0,11.54,11.75A30.66,30.66,0,0,0,175,591.3Z" transform="translate(-6.84)"/><path class="cls-1" d="M309.19,617.58a59.62,59.62,0,0,1-23.07-4.27A48.19,48.19,0,0,1,269,601.66a41.76,41.76,0,0,1-9.61-16.56l28.2-6.41a19.89,19.89,0,0,0,7.69,11.22,22.4,22.4,0,0,0,13.47,4.17q9,0,13.56-3.42a10.28,10.28,0,0,0,4.6-8.55,9.15,9.15,0,0,0-4.7-8.23,42.72,42.72,0,0,0-12.4-4.7q-7.68-1.81-16.34-4.06a84.3,84.3,0,0,1-16.24-6,33.54,33.54,0,0,1-12.4-10.26q-4.8-6.51-4.8-17.41a30.35,30.35,0,0,1,5.66-17.74,38.2,38.2,0,0,1,16-12.82q10.35-4.7,25.32-4.7a58.74,58.74,0,0,1,22,3.85A40.86,40.86,0,0,1,344.88,511a38.85,38.85,0,0,1,8.54,16.89l-27.35,7.26q-1.92-7.47-6.73-11.32c-3.2-2.57-7.66-3.85-13.35-3.85s-9.73,1-12.5,3a9.48,9.48,0,0,0-4.17,8.12q0,5.13,4.81,8.12a45.72,45.72,0,0,0,12.39,5q7.59,2,16.13,4.28a78.46,78.46,0,0,1,16,6.08,34.9,34.9,0,0,1,12.39,10.58q4.92,6.74,4.92,17.2a30.26,30.26,0,0,1-5.66,17.85q-5.67,8-16.24,12.71T309.19,617.58Z" transform="translate(-6.84)"/><path class="cls-1" d="M379.49,616.08V458h30.13v87.61a53.42,53.42,0,0,0,20.3-8.33,62.62,62.62,0,0,0,16.67-16.56,63.52,63.52,0,0,0,9.83-23h31.83A76.78,76.78,0,0,1,477.57,523a97.8,97.8,0,0,1-17.74,20.62,70.86,70.86,0,0,1-21.15,13,57,57,0,0,1,16.88,8,87.38,87.38,0,0,1,15.6,13.68,86.24,86.24,0,0,1,12.39,17.74,65.83,65.83,0,0,1,6.84,20H458.34a58.7,58.7,0,0,0-7-18A64.24,64.24,0,0,0,439.86,584a61.5,61.5,0,0,0-14.32-9.83,47,47,0,0,0-15.92-4.7v46.58Z" transform="translate(-6.84)"/><path class="cls-1" d="M506.42,466.94h92.09V491.3h-62v38h47.65v23.72H536.54v63H506.42Z" transform="translate(-6.84)"/><path class="cls-1" d="M617.74,584.25V458h30.13V582.11c0,3.28.92,5.73,2.78,7.37a9.65,9.65,0,0,0,6.62,2.46,11.54,11.54,0,0,0,4.7-.86l5.56,22.65a36.33,36.33,0,0,1-16.88,3.85,38.21,38.21,0,0,1-15.6-3.31,28.89,28.89,0,0,1-12.39-10.58Q617.74,596.43,617.74,584.25Z" transform="translate(-6.84)"/><path class="cls-1" d="M738.89,617.58q-17.29,0-30.87-7.37A54.77,54.77,0,0,1,686.44,589q-8-13.89-8-32.27t8.12-31.94a56.59,56.59,0,0,1,21.91-21.05,68.34,68.34,0,0,1,62-.11,55.79,55.79,0,0,1,21.9,20.94q8.13,13.58,8.12,32.16,0,18.38-8.33,32.27a56.43,56.43,0,0,1-22.22,21.26A65.12,65.12,0,0,1,738.89,617.58Zm-.21-26.07a30.83,30.83,0,0,0,15-3.84,30,30,0,0,0,11.54-11.54q4.49-7.7,4.48-19.45,0-11.53-4.38-19.23A28.62,28.62,0,0,0,754,526a30.89,30.89,0,0,0-14.85-3.74A29.7,29.7,0,0,0,724.47,526a28.31,28.31,0,0,0-11,11.43q-4.28,7.69-4.28,19.23,0,11.76,4.06,19.45A28,28,0,0,0,724,587.67,29.06,29.06,0,0,0,738.68,591.51Z" transform="translate(-6.84)"/><path class="cls-1" d="M809.19,497.71h30.35l25,108.76h-9l27.35-108.76h31.84l26.92,108.76h-9l24.79-108.76h29.06L952.14,616.08H919.45l-26.07-100h9.4l-26.49,100h-32.7Z" transform="translate(-6.84)"/></g></g></svg>