<svg xmlns="http://www.w3.org/2000/svg" viewBox="0 0 364.55 374.23"><defs><style>.cls-1{fill:#5b21b6;}.cls-2{fill:#febd46;}.cls-3{fill:#fb71b7;}</style></defs><g id="Camada_2" data-name="Camada 2"><g id="OBJECTS"><path class="cls-1" d="M285.41,0c30.95.07,58.65,20.3,67.07,50.09,5.2,18.42,5.14,43-6.86,75.27-19.25,52.1-48.14,67.57-48.14,67.57S56.32,31.84,1,158.45c0,0-11.71-49.22,46.36-78.89C105,50.08,194.11-.22,285.41,0Z"/><path class="cls-2" d="M314.25,333.83c-15.54,26.77-46.91,40.64-76.91,33-18.55-4.7-39.82-17.05-61.76-43.58-35.49-42.71-34.45-75.47-34.45-75.47S401.22,119.52,319.25,8.27c0,0,48.48,14.47,45.14,79.6C361.07,152.57,360.09,254.87,314.25,333.83Z"/><path class="cls-3" d="M290.18,359s-36.8,34.76-91.54-.7c-54.35-35.22-142.47-87.23-187.91-166.4a70.94,70.94,0,0,1-9.37-34.3C29.48,94.9,103.8,104,171,128.55,171.91,208.76,186.58,370.59,290.18,359Z"/></g></g></svg>